<?xml version="1.0" ?><svg height="60px" version="1.1" viewBox="0 0 60 60" width="60px" xmlns="http://www.w3.org/2000/svg" xmlns:sketch="http://www.bohemiancoding.com/sketch/ns" xmlns:xlink="http://www.w3.org/1999/xlink"><title/><defs/><g fill="none" fill-rule="evenodd" id="black" stroke="none" stroke-width="1"><g id="pinboard"><path d="M30,60 C46.5685433,60 60,46.5685433 60,30 C60,13.4314567 46.5685433,0 30,0 C13.4314567,0 0,13.4314567 0,30 C0,46.5685433 13.4314567,60 30,60 Z" fill="#000000" id="Pinboard"/><path d="M39.5108657,25.7500366 C37.6964461,27.5011491 35.9491486,29.1867995 34.184894,30.8894973 C38.1973898,35.596635 42.1759713,40.2649045 46.1538462,44.9324922 C46.1333562,44.9549948 46.1128663,44.9768155 46.0930829,45 C41.2468584,41.1745556 36.3999273,37.3484294 31.4915265,33.4738884 C29.7392832,35.1738586 27.9912792,36.8697374 26.2453948,38.5642524 C26.2453948,38.1898907 26.2227852,37.8182567 26.2496341,37.450714 C26.3337135,36.3105815 26.4418156,35.1724948 26.5237754,34.0330442 C26.5315474,33.9191674 26.4495877,33.7766508 26.3662148,33.6832309 C24.550382,31.6525404 22.7281903,29.6279871 20.9074117,27.601388 C19.9648744,26.551948 19.0195109,25.5052355 18.0805063,24.4530678 C17.8593562,24.205539 17.6261948,24.0643863 17.2538431,24.0739328 C16.1106457,24.1025725 14.9667417,24.0848432 13.8461538,24.0848432 C17.3817286,20.6692192 20.8890414,17.280871 24.4451061,13.8461538 C24.4451061,14.8915025 24.4684223,15.9620815 24.4338013,17.0306147 C24.4189638,17.4752118 24.5878292,17.7452431 24.9290927,18.0248211 C26.5534505,19.3552029 28.153079,20.7121787 29.7618927,22.0602898 C31.3064104,23.3545311 32.8269054,24.6767301 34.4152292,25.9198291 C34.6851312,26.1312173 35.2418923,26.0480258 35.6622894,26.0248413 C36.9206545,25.9546058 38.1776064,25.8475479 39.5108657,25.7500366 L39.5108657,25.7500366 Z" fill="#FFFFFF" id="Pinboard"/></g></g></svg>