<?xml version="1.0" ?><svg height="60px" version="1.1" viewBox="0 0 60 60" width="60px" xmlns="http://www.w3.org/2000/svg" xmlns:sketch="http://www.bohemiancoding.com/sketch/ns" xmlns:xlink="http://www.w3.org/1999/xlink"><title/><defs/><g fill="none" fill-rule="evenodd" id="black" stroke="none" stroke-width="1"><g id="pinterest"><path d="M30,60 C46.5685433,60 60,46.5685433 60,30 C60,13.4314567 46.5685433,0 30,0 C13.4314567,0 0,13.4314567 0,30 C0,46.5685433 13.4314567,60 30,60 Z" fill="#000000" id="Pinterest"/><path d="M32.7594534,39.0844011 C39.3650607,39.0844011 43.8461538,32.9370493 43.8461538,24.7083106 C43.8461538,18.4879013 38.683296,12.6923077 30.8387325,12.6923077 C21.076393,12.6923077 16.1538462,19.8375106 16.1538462,25.7957548 C16.1538462,29.4035321 17.4908705,32.6132513 20.3616445,33.8095301 C20.831959,34.0055526 21.2533867,33.8158437 21.3903287,33.2845985 C21.4839793,32.9163046 21.7104488,31.9873019 21.8088114,31.6009691 C21.9466368,31.0748349 21.893627,30.8905376 21.5137236,30.4317486 C20.6867711,29.4341982 20.1590293,28.1453197 20.1590293,26.3176799 C20.1590293,21.0172538 24.0419955,16.2721247 30.2747673,16.2721247 C35.7910237,16.2721247 38.8240664,19.7130423 38.8240664,24.3105531 C38.8240664,30.3583905 36.2024384,35.462794 32.3094593,35.462794 C30.1590293,35.462794 28.5513606,33.648082 29.0661444,31.4226848 C29.6825303,28.7655568 30.8805513,25.8967726 30.8805513,23.9786376 C30.8805513,22.2625382 29.9779126,20.8293487 28.1090234,20.8293487 C25.9111792,20.8293487 24.1462481,23.1509534 24.1462481,26.2593542 C24.1462481,28.239122 24.8026858,29.5785093 24.8026858,29.5785093 C24.8026858,29.5785093 22.5535988,39.3053775 22.1586759,41.0082484 C21.8005654,42.5589913 21.7469667,44.2633654 21.797326,45.7037705 C21.9478148,46.9959561 23.1994346,48.0482244 24.2852515,46.6306686 C25.0485923,45.3850835 25.8693603,43.8120926 26.2940276,42.2354939 C26.5472965,41.3025828 27.7400165,36.4699652 27.7400165,36.4699652 C28.454765,37.860162 30.5412887,39.0844011 32.7594534,39.0844011 Z" fill="#FFFFFF" id="Pinterest"/></g></g></svg>