<?xml version="1.0" ?><svg height="60px" version="1.1" viewBox="0 0 60 60" width="60px" xmlns="http://www.w3.org/2000/svg" xmlns:sketch="http://www.bohemiancoding.com/sketch/ns" xmlns:xlink="http://www.w3.org/1999/xlink"><title/><defs/><g fill="none" fill-rule="evenodd" id="black" stroke="none" stroke-width="1"><g id="reddit"><path d="M30,60 C46.5685433,60 60,46.5685433 60,30 C60,13.4314567 46.5685433,0 30,0 C13.4314567,0 0,13.4314567 0,30 C0,46.5685433 13.4314567,60 30,60 Z" fill="#000000"/><path d="M49.608,26.7948821 L49.608,26.798205 C49.6137436,26.8800325 49.6153846,26.9614446 49.6153846,27.0424414 C49.6153846,27.9504358 49.3277949,28.8235394 48.8477949,29.5641405 C48.3997949,30.2573897 47.7819487,30.8376588 47.0705641,31.2310123 C47.1161026,31.5923825 47.1427692,31.9566602 47.1427692,32.3196918 C47.1419487,34.274829 46.4761026,36.1967367 45.3167179,37.7369213 L45.3167179,37.737752 L45.3142564,37.737752 C43.1706667,40.6245596 39.8791795,42.3271531 36.5552821,43.1857187 L36.5544615,43.1857187 L36.552,43.1877956 C34.7796923,43.6235166 32.952,43.8461538 31.1247179,43.8461538 C28.4010256,43.8461538 25.6793846,43.3489583 23.1398974,42.3175996 L23.1390769,42.3151074 L23.1366154,42.3151074 C20.5035897,41.216459 17.9948718,39.4698366 16.4564103,36.9107543 C15.6285128,35.5450244 15.174359,33.9433653 15.174359,32.3338143 C15.174359,31.9695366 15.1985641,31.6052589 15.2465641,31.2443041 C14.553641,30.8492891 13.9534359,30.2889577 13.5078974,29.6202152 C13.032,28.9016286 12.7304615,28.060093 12.6923077,27.1703747 L12.6923077,27.1670518 L12.6923077,27.1637288 L12.6923077,27.1562522 C12.6931282,25.9101482 13.2276923,24.7296724 14.0584615,23.8594764 C14.8892308,22.9892804 16.024,22.4206416 17.2412308,22.4206416 L17.2916923,22.4206416 C17.4192821,22.4119189 17.5481026,22.4069345 17.6769231,22.4069345 C18.2882051,22.4069345 18.9011282,22.5070382 19.4828718,22.7329984 L19.4861538,22.7354906 L19.4894359,22.7363213 C19.9862564,22.948159 20.4797949,23.2036103 20.9195897,23.5575039 C21.062359,23.4819069 21.2178462,23.3967564 21.3922051,23.3294668 C24.0588718,21.7307154 27.158359,21.1138939 30.1790769,20.9361164 C30.2053333,19.4208539 30.3891282,17.8349789 31.1189744,16.4468191 C31.7269744,15.2937575 32.7817436,14.3957319 34.0379487,14.0846212 L34.0428718,14.082129 L34.0494359,14.0812983 C34.5277949,13.9874251 35.0102564,13.9442268 35.4894359,13.9442268 C36.7657436,13.9442268 38.0272821,14.2503531 39.2071795,14.7280263 C39.7294359,13.929689 40.4756923,13.306637 41.3507692,12.9573125 L41.3589744,12.9523281 L41.3671795,12.9490051 C41.8808205,12.7870116 42.4231795,12.6923077 42.968,12.6923077 C43.542359,12.6923077 44.1212308,12.7986419 44.6635897,13.0441244 L44.6635897,13.0420475 C44.6644103,13.0441244 44.6652308,13.0441244 44.6652308,13.0441244 C44.6693333,13.0453705 44.6726154,13.0478627 44.6754872,13.0478627 C45.4533333,13.3510813 46.1113846,13.9114128 46.5778462,14.6079849 C47.0451282,15.3074646 47.32,16.1452619 47.32,17.0067351 C47.32,17.1654057 47.3113846,17.3244916 47.2929231,17.4835776 L47.2912821,17.4869005 C47.2912821,17.4893927 47.2912821,17.4927157 47.2904615,17.4952079 C47.1989744,18.6083941 46.6422564,19.5853397 45.8537436,20.2819118 C45.0603077,20.9813915 44.0330256,21.4038208 42.9786667,21.4038208 C42.809641,21.4038208 42.6389744,21.3942673 42.4691282,21.3714221 C41.4233846,21.2904253 40.4482051,20.7782766 39.7318974,20.0160763 C39.0131282,19.2551221 38.5499487,18.2383012 38.5499487,17.140899 C38.5499487,17.0877319 38.5548718,17.0333187 38.5565128,16.9805669 C37.5747692,16.5382 36.5323077,16.1710147 35.4964103,16.1718454 C35.3466667,16.1718454 35.1969231,16.1801528 35.0467692,16.1955214 L35.0451282,16.1955214 C34.2693333,16.2711184 33.5485128,16.766237 33.1989744,17.4781778 L33.1989744,17.4790085 L33.1989744,17.4815007 C32.6685128,18.5273974 32.5626667,19.7498254 32.5466667,20.9635307 C35.5202051,21.1599998 38.5113846,21.8823247 41.1349744,23.4092175 L41.1390769,23.4092175 L41.1768205,23.4316473 C41.2264615,23.4615538 41.3187692,23.5126441 41.4020513,23.5575039 C41.5821538,23.4096328 41.7729231,23.2571928 41.990359,23.1259365 C42.7858462,22.5896964 43.7282051,22.3230302 44.6705641,22.3230302 C45.0890256,22.3230302 45.5078974,22.377028 45.9140513,22.4825315 L45.9156923,22.4825315 L45.9325128,22.4875159 C45.9382564,22.4883466 45.9427692,22.4904235 45.9476923,22.4904235 L45.9476923,22.4912542 C46.9076923,22.7383982 47.7762051,23.2966527 48.4301538,24.0492996 C49.0832821,24.8031925 49.5230769,25.7568774 49.6088205,26.7923898 L49.6088205,26.7948821 L49.608,26.7948821 Z M44.8034872,32.4044269 C44.8034872,31.0573885 44.3234872,29.7041195 43.5464615,28.6146093 C41.9969231,26.4314351 39.5928205,25.0075535 37.0923077,24.2137853 L37.0746667,24.2075548 C36.5946667,24.0584377 36.1097436,23.9263506 35.6211282,23.8133705 C34.1597949,23.4765071 32.6611282,23.3086984 31.1645128,23.3086984 C29.1542564,23.3086984 27.1444103,23.6098402 25.2198974,24.2108777 C22.7197949,25.0141994 20.3078974,26.4281121 18.761641,28.6183476 L18.761641,28.620009 C17.9780513,29.713673 17.5189744,31.071511 17.5189744,32.4235338 C17.5189744,32.9211447 17.5805128,33.4187556 17.7105641,33.9030746 L17.7122051,33.9039054 C17.993641,34.9905081 18.5437949,35.9608077 19.2564103,36.8060816 C19.9686154,37.653017 20.8420513,38.3753419 21.7610256,38.9647491 C21.9645128,39.0922671 22.1688205,39.2139699 22.3780513,39.3331805 C25.0471795,40.8413817 28.1208205,41.5026476 31.1723077,41.5026476 C31.6884103,41.5026476 32.2073846,41.4843714 32.7202051,41.4465729 C35.7930256,41.1898755 38.8789744,40.2714968 41.3733333,38.3948642 L41.3741538,38.3927874 C42.1684103,37.7988111 42.904,37.0793937 43.4853333,36.2611188 C44.0695385,35.4428438 44.4974359,34.5273728 44.6873846,33.5338125 L44.6873846,33.5309049 L44.6882051,33.5300742 C44.7657436,33.1587352 44.8034872,32.7824118 44.8034872,32.4044269 Z M40.8490256,16.9419377 C40.8490256,16.9826438 40.8498462,17.0245959 40.8539487,17.0669635 L40.8539487,17.0694557 L40.8539487,17.0744401 C40.8732308,17.5973884 41.1169231,18.0841997 41.4877949,18.4439084 C41.8603077,18.8036171 42.3546667,19.0262543 42.8564103,19.0283312 L42.8629744,19.0283312 L42.8695385,19.0283312 C42.905641,19.0312388 42.9425641,19.0312388 42.9778462,19.0312388 C43.4841026,19.0320695 43.9866667,18.8110937 44.3641026,18.4526311 C44.742359,18.0925071 44.9913846,17.6027882 45.0114872,17.0752708 L45.0123077,17.0727786 L45.0123077,17.0694557 C45.0155897,17.029165 45.0172308,16.9909511 45.0172308,16.9498297 C45.0172308,16.4069437 44.7665641,15.8893952 44.3739487,15.5060105 C43.9829744,15.1230412 43.4566154,14.8858661 42.9372308,14.8871122 C42.7698462,14.8871122 42.6041026,14.9103728 42.4412308,14.9614631 L42.4363077,14.9622938 L42.4313846,14.9643707 C42.0034872,15.0769354 41.6026667,15.344017 41.3142564,15.6987413 C41.0246154,16.0518041 40.8490256,16.4879405 40.8490256,16.9419377 Z M18.8994872,25.0117072 C18.5019487,24.8243763 18.0908718,24.6906278 17.6847179,24.6922892 C17.6166154,24.6922892 17.5476923,24.6964429 17.4795897,24.7039195 L17.4701538,24.7039195 L17.4607179,24.7051656 C16.8773333,24.721365 16.2886154,24.9788932 15.8467692,25.3917689 C15.4045128,25.8029833 15.112,26.3583303 15.0894359,26.9705827 L15.0894359,26.9763979 L15.0886154,26.9813823 C15.0845128,27.0308111 15.0828718,27.0802399 15.0828718,27.1275918 C15.0828718,27.5051613 15.1973333,27.8702698 15.3913846,28.2025642 C15.5349744,28.4497082 15.7232821,28.6756684 15.9362051,28.8717221 C16.6180513,27.3601979 17.6830769,26.0775415 18.8994872,25.0117072 Z M47.2289231,27.0432721 C47.2281026,26.7163775 47.1542564,26.390729 46.9926154,26.087095 L46.9885128,26.0833567 L46.9868718,26.0783722 C46.7706667,25.6272826 46.4309744,25.2866808 46.0211282,25.0544901 C45.6116923,24.8210533 45.1325128,24.7018427 44.6516923,24.7018427 C44.2172308,24.7018427 43.7848205,24.8002849 43.4008205,24.9955079 C44.6213333,26.0684034 45.6916923,27.3577057 46.3837949,28.875045 C46.6065641,28.6789913 46.7965128,28.4389086 46.9384615,28.1722423 C47.1238974,27.8225025 47.2289231,27.4303951 47.2289231,27.0432721 Z M37.5325916,34.7864125 C37.3454649,34.6798764 37.1291124,34.6153846 36.8997707,34.6153846 C36.7150795,34.6153846 36.5230819,34.6617047 36.3525977,34.7611146 C34.7382753,35.6069902 32.8398126,36.0701908 30.9551509,36.0701908 C29.5409444,36.0701908 28.135262,35.8083043 26.8619078,35.2592334 L26.8554132,35.256383 L26.8489186,35.2542451 C26.656921,35.1854776 26.438133,35.0386787 26.1994552,34.8993622 C26.0780867,34.8305947 25.9514413,34.7618273 25.8109949,34.7115878 C25.6721721,34.6595668 25.5183304,34.6232234 25.3535291,34.6232234 C25.2171418,34.6232234 25.0738539,34.6503028 24.9325956,34.7065995 C24.9252892,34.7090937 24.9183886,34.7115878 24.9110821,34.714082 L24.911894,34.714082 C24.6898587,34.7885504 24.5161272,34.9246601 24.4045007,35.0860677 C24.2880032,35.2524636 24.2307692,35.4459389 24.2307692,35.6387016 C24.2307692,35.81258 24.2774494,35.9868147 24.374463,36.1446592 C24.4666056,36.2943086 24.6082698,36.4250737 24.7937728,36.5127255 C26.613894,37.5905576 28.7571232,38.0786998 30.9084708,38.0769182 C32.8483368,38.0769182 34.7995684,37.6828414 36.5372889,36.9652368 L36.5466249,36.9602485 L36.5551491,36.9559728 C36.784085,36.8373222 37.088521,36.7304297 37.3755026,36.5747231 C37.5175727,36.4952664 37.6559896,36.4036952 37.7749226,36.284332 C37.8938556,36.1656813 37.9896514,36.0192387 38.0436381,35.8460729 L38.0436381,35.8453603 C38.0659634,35.7691104 38.0769231,35.6942857 38.0769231,35.6201736 C38.0769231,35.4783629 38.0371434,35.3440348 37.9713853,35.2232463 C37.8751835,35.0418855 37.7172827,34.8925924 37.5325916,34.7864125 Z M25.3846154,27.6923077 C24.1101121,27.6923077 23.0769231,28.7166111 23.0769231,30 C23.0769231,31.2745033 24.1012265,32.3076923 25.3846154,32.3076923 C26.6591187,32.3076923 27.6923077,31.2833889 27.6923077,30 C27.6923077,28.7254967 26.6680043,27.6923077 25.3846154,27.6923077 Z M36.9230769,27.6923077 C35.6485737,27.6923077 34.6153846,28.7166111 34.6153846,30 C34.6153846,31.2745033 35.6396881,32.3076923 36.9230769,32.3076923 C38.1975802,32.3076923 39.2307692,31.2833889 39.2307692,30 C39.2307692,28.7254967 38.2064658,27.6923077 36.9230769,27.6923077 Z" fill="#FFFFFF"/></g></g></svg>