<?xml version="1.0" standalone="no"?><!DOCTYPE svg PUBLIC "-//W3C//DTD SVG 1.1//EN" 
  "http://www.w3.org/Graphics/SVG/1.1/DTD/svg11.dtd"><svg xmlns="http://www.w3.org/2000/svg" xmlns:xlink= "http://www.w3.org/1999/xlink" viewBox="0 0 540 360"><g preserveAspectRatio="xMinYMin"><path d="m0 0h45v45h-45z" fill="#fff" opacity=".5" stroke="#aaa"/><text text-anchor="middle" x="22.5" y="24.5">AK</text></g><g preserveAspectRatio="xMinYMin" transform="translate(495)"><path d="m0 0h45v45h-45z" fill="#fff" opacity=".5" stroke="#aaa"/><text text-anchor="middle" x="22.5" y="24.5">ME</text></g><g preserveAspectRatio="xMinYMin" transform="translate(405 45)"><path d="m0 0h45v45h-45z" fill="#fff" opacity=".5" stroke="#aaa"/><text text-anchor="middle" x="22.5" y="24.5">VT</text></g><g preserveAspectRatio="xMinYMin" transform="translate(450 45)"><path d="m0 0h45v45h-45z" fill="#fff" opacity=".5" stroke="#aaa"/><text text-anchor="middle" x="22.5" y="24.5">NH</text></g><g preserveAspectRatio="xMinYMin" transform="translate(495 45)"><path d="m0 0h45v45h-45z" fill="#fff" opacity=".5" stroke="#aaa"/><text text-anchor="middle" x="22.5" y="24.5">MA</text></g><g preserveAspectRatio="xMinYMin" transform="translate(45 90)"><path d="m0 0h45v45h-45z" fill="#fff" opacity=".5" stroke="#aaa"/><text text-anchor="middle" x="22.5" y="24.5">WA</text></g><g preserveAspectRatio="xMinYMin" transform="translate(90 90)"><path d="m0 0h45v45h-45z" fill="#fff" opacity=".5" stroke="#aaa"/><text text-anchor="middle" x="22.5" y="24.5">MT</text></g><g preserveAspectRatio="xMinYMin" transform="translate(135 90)"><path d="m0 0h45v45h-45z" fill="#fff" opacity=".5" stroke="#aaa"/><text text-anchor="middle" x="22.5" y="24.5">ND</text></g><g preserveAspectRatio="xMinYMin" transform="translate(180 90)"><path d="m0 0h45v45h-45z" fill="#fff" opacity=".5" stroke="#aaa"/><text text-anchor="middle" x="22.5" y="24.5">SD</text></g><g preserveAspectRatio="xMinYMin" transform="translate(225 90)"><path d="m0 0h45v45h-45z" fill="#fff" opacity=".5" stroke="#aaa"/><text text-anchor="middle" x="22.5" y="24.5">MN</text></g><g preserveAspectRatio="xMinYMin" transform="translate(270 90)"><path d="m0 0h45v45h-45z" fill="#fff" opacity=".5" stroke="#aaa"/><text text-anchor="middle" x="22.5" y="24.5">WI</text></g><g preserveAspectRatio="xMinYMin" transform="translate(315 90)"><path d="m0 0h45v45h-45z" fill="#fff" opacity=".5" stroke="#aaa"/><text text-anchor="middle" x="22.5" y="24.5">MI</text></g><g preserveAspectRatio="xMinYMin" transform="translate(405 90)"><path d="m0 0h45v45h-45z" fill="#fff" opacity=".5" stroke="#aaa"/><text text-anchor="middle" x="22.5" y="24.5">NY</text></g><g preserveAspectRatio="xMinYMin" transform="translate(450 90)"><path d="m0 0h45v45h-45z" fill="#fff" opacity=".5" stroke="#aaa"/><text text-anchor="middle" x="22.5" y="24.5">CT</text></g><g preserveAspectRatio="xMinYMin" transform="translate(495 90)"><path d="m0 0h45v45h-45z" fill="#fff" opacity=".5" stroke="#aaa"/><text text-anchor="middle" x="22.5" y="24.5">RI</text></g><g preserveAspectRatio="xMinYMin" transform="translate(45 135)"><path d="m0 0h45v45h-45z" fill="#fff" opacity=".5" stroke="#aaa"/><text text-anchor="middle" x="22.5" y="24.5">OR</text></g><g preserveAspectRatio="xMinYMin" transform="translate(90 135)"><path d="m0 0h45v45h-45z" fill="#fff" opacity=".5" stroke="#aaa"/><text text-anchor="middle" x="22.5" y="24.5">ID</text></g><g preserveAspectRatio="xMinYMin" transform="translate(135 135)"><path d="m0 0h45v45h-45z" fill="#fff" opacity=".5" stroke="#aaa"/><text text-anchor="middle" x="22.5" y="24.5">WY</text></g><g preserveAspectRatio="xMinYMin" transform="translate(180 135)"><path d="m0 0h45v45h-45z" fill="#fff" opacity=".5" stroke="#aaa"/><text text-anchor="middle" x="22.5" y="24.5">NE</text></g><g preserveAspectRatio="xMinYMin" transform="translate(225 135)"><path d="m0 0h45v45h-45z" fill="#fff" opacity=".5" stroke="#aaa"/><text text-anchor="middle" x="22.5" y="24.5">IA</text></g><g preserveAspectRatio="xMinYMin" transform="translate(270 135)"><path d="m0 0h45v45h-45z" fill="#fff" opacity=".5" stroke="#aaa"/><text text-anchor="middle" x="22.5" y="24.5">IL</text></g><g preserveAspectRatio="xMinYMin" transform="translate(315 135)"><path d="m0 0h45v45h-45z" fill="#fff" opacity=".5" stroke="#aaa"/><text text-anchor="middle" x="22.5" y="24.5">IN</text></g><g preserveAspectRatio="xMinYMin" transform="translate(360 135)"><path d="m0 0h45v45h-45z" fill="#fff" opacity=".5" stroke="#aaa"/><text text-anchor="middle" x="22.5" y="24.5">OH</text></g><g preserveAspectRatio="xMinYMin" transform="translate(405 135)"><path d="m0 0h45v45h-45z" fill="#fff" opacity=".5" stroke="#aaa"/><text text-anchor="middle" x="22.5" y="24.5">PA</text></g><g preserveAspectRatio="xMinYMin" transform="translate(450 135)"><path d="m0 0h45v45h-45z" fill="#fff" opacity=".5" stroke="#aaa"/><text text-anchor="middle" x="22.5" y="24.5">NJ</text></g><g preserveAspectRatio="xMinYMin" transform="translate(0 180)"><path d="m0 0h45v45h-45z" fill="#fff" opacity=".5" stroke="#aaa"/><text text-anchor="middle" x="22.5" y="24.5">CA</text></g><g preserveAspectRatio="xMinYMin" transform="translate(45 180)"><path d="m0 0h45v45h-45z" fill="#fff" opacity=".5" stroke="#aaa"/><text text-anchor="middle" x="22.5" y="24.5">NV</text></g><g preserveAspectRatio="xMinYMin" transform="translate(90 180)"><path d="m0 0h45v45h-45z" fill="#fff" opacity=".5" stroke="#aaa"/><text text-anchor="middle" x="22.5" y="24.5">UT</text></g><g preserveAspectRatio="xMinYMin" transform="translate(135 180)"><path d="m0 0h45v45h-45z" fill="#fff" opacity=".5" stroke="#aaa"/><text text-anchor="middle" x="22.5" y="24.5">CO</text></g><g preserveAspectRatio="xMinYMin" transform="translate(180 180)"><path d="m0 0h45v45h-45z" fill="#fff" opacity=".5" stroke="#aaa"/><text text-anchor="middle" x="22.5" y="24.5">KS</text></g><g preserveAspectRatio="xMinYMin" transform="translate(225 180)"><path d="m0 0h45v45h-45z" fill="#fff" opacity=".5" stroke="#aaa"/><text text-anchor="middle" x="22.5" y="24.5">MO</text></g><g preserveAspectRatio="xMinYMin" transform="translate(270 180)"><path d="m0 0h45v45h-45z" fill="#fff" opacity=".5" stroke="#aaa"/><text text-anchor="middle" x="22.5" y="24.5">KY</text></g><g preserveAspectRatio="xMinYMin" transform="translate(315 180)"><path d="m0 0h45v45h-45z" fill="#fff" opacity=".5" stroke="#aaa"/><text text-anchor="middle" x="22.5" y="24.5">WV</text></g><g preserveAspectRatio="xMinYMin" transform="translate(360 180)"><path d="m0 0h45v45h-45z" fill="#fff" opacity=".5" stroke="#aaa"/><text text-anchor="middle" x="22.5" y="24.5">MD</text></g><g preserveAspectRatio="xMinYMin" transform="translate(405 180)"><path d="m0 0h45v45h-45z" fill="#fff" opacity=".5" stroke="#aaa"/><text text-anchor="middle" x="22.5" y="24.5">DE</text></g><g preserveAspectRatio="xMinYMin" transform="translate(90 225)"><path d="m0 0h45v45h-45z" fill="#fff" opacity=".5" stroke="#aaa"/><text text-anchor="middle" x="22.5" y="24.5">AZ</text></g><g preserveAspectRatio="xMinYMin" transform="translate(135 225)"><path d="m0 0h45v45h-45z" fill="#fff" opacity=".5" stroke="#aaa"/><text text-anchor="middle" x="22.5" y="24.5">NM</text></g><g preserveAspectRatio="xMinYMin" transform="translate(180 225)"><path d="m0 0h45v45h-45z" fill="#fff" opacity=".5" stroke="#aaa"/><text text-anchor="middle" x="22.5" y="24.5">OK</text></g><g preserveAspectRatio="xMinYMin" transform="translate(225 225)"><path d="m0 0h45v45h-45z" fill="#fff" opacity=".5" stroke="#aaa"/><text text-anchor="middle" x="22.5" y="24.5">AR</text></g><g preserveAspectRatio="xMinYMin" transform="translate(270 225)"><path d="m0 0h45v45h-45z" fill="#fff" opacity=".5" stroke="#aaa"/><text text-anchor="middle" x="22.5" y="24.5">TN</text></g><g preserveAspectRatio="xMinYMin" transform="translate(315 225)"><path d="m0 0h45v45h-45z" fill="#fff" opacity=".5" stroke="#aaa"/><text text-anchor="middle" x="22.5" y="24.5">VA</text></g><g preserveAspectRatio="xMinYMin" transform="translate(360 225)"><path d="m0 0h45v45h-45z" fill="#fff" opacity=".5" stroke="#aaa"/><text text-anchor="middle" x="22.5" y="24.5">NC</text></g><g preserveAspectRatio="xMinYMin" transform="translate(135 270)"><path d="m0 0h45v45h-45z" fill="#fff" opacity=".5" stroke="#aaa"/><text text-anchor="middle" x="22.5" y="24.5">TX</text></g><g preserveAspectRatio="xMinYMin" transform="translate(180 270)"><path d="m0 0h45v45h-45z" fill="#fff" opacity=".5" stroke="#aaa"/><text text-anchor="middle" x="22.5" y="24.5">LA</text></g><g preserveAspectRatio="xMinYMin" transform="translate(225 270)"><path d="m0 0h45v45h-45z" fill="#fff" opacity=".5" stroke="#aaa"/><text text-anchor="middle" x="22.5" y="24.5">MS</text></g><g preserveAspectRatio="xMinYMin" transform="translate(270 270)"><path d="m0 0h45v45h-45z" fill="#fff" opacity=".5" stroke="#aaa"/><text text-anchor="middle" x="22.5" y="24.5">AL</text></g><g preserveAspectRatio="xMinYMin" transform="translate(315 270)"><path d="m0 0h45v45h-45z" fill="#fff" opacity=".5" stroke="#aaa"/><text text-anchor="middle" x="22.5" y="24.5">GA</text></g><g preserveAspectRatio="xMinYMin" transform="translate(360 270)"><path d="m0 0h45v45h-45z" fill="#fff" opacity=".5" stroke="#aaa"/><text text-anchor="middle" x="22.5" y="24.5">SC</text></g><g preserveAspectRatio="xMinYMin" transform="translate(0 315)"><path d="m0 0h45v45h-45z" fill="#fff" opacity=".5" stroke="#aaa"/><text text-anchor="middle" x="22.5" y="24.5">HI</text></g><g preserveAspectRatio="xMinYMin" transform="translate(315 315)"><path d="m0 0h45v45h-45z" fill="#fff" opacity=".5" stroke="#aaa"/><text text-anchor="middle" x="22.5" y="24.5">FL</text></g></svg>